{
    "asset" : {
        "generator" : "Khronos glTF Blender I/O v1.8.19",
        "version" : "2.0"
    },
    "scene" : 0,
    "scenes" : [
        {
            "name" : "Scene",
            "nodes" : [
                0,
                1,
                2,
                3
            ]
        }
    ],
    "nodes" : [
        {
            "mesh" : 0,
            "name" : "Torus",
            "translation" : [
                0,
                -0.0013327214401215315,
                0
            ]
        },
        {
            "mesh" : 1,
            "name" : "Torus.001",
            "scale" : [
                0.9921748042106628,
                1.1095222234725952,
                0.9921748042106628
            ],
            "translation" : [
                0,
                0.03629195690155029,
                0
            ]
        },
        {
            "mesh" : 2,
            "name" : "Torus.003"
        },
        {
            "mesh" : 3,
            "name" : "Plane",
            "scale" : [
                17.28080177307129,
                5.091022491455078,
                17.28080177307129
            ],
            "translation" : [
                -0.04870247095823288,
                -0.3165215849876404,
                0.023539364337921143
            ]
        }
    ],
    "materials" : [
        {
            "doubleSided" : true,
            "name" : "bread",
            "normalTexture" : {
                "index" : 0
            },
            "pbrMetallicRoughness" : {
                "baseColorTexture" : {
                    "index" : 1
                },
                "metallicFactor" : 0
            }
        },
        {
            "doubleSided" : true,
            "name" : "Material.001",
            "pbrMetallicRoughness" : {
                "baseColorFactor" : [
                    0.6557027101516724,
                    0.22140705585479736,
                    0.41061004996299744,
                    1
                ],
                "metallicFactor" : 0,
                "roughnessFactor" : 0.24482759833335876
            }
        },
        {
            "doubleSided" : true,
            "name" : "Material.003",
            "pbrMetallicRoughness" : {
                "baseColorFactor" : [
                    0.8000000715255737,
                    0.5895639061927795,
                    0.7793158292770386,
                    1
                ],
                "metallicFactor" : 0,
                "roughnessFactor" : 0.5
            }
        }
    ],
    "meshes" : [
        {
            "name" : "Mesh",
            "primitives" : [
                {
                    "attributes" : {
                        "POSITION" : 0,
                        "NORMAL" : 1,
                        "TEXCOORD_0" : 2
                    },
                    "indices" : 3,
                    "material" : 0
                }
            ]
        },
        {
            "name" : "Mesh",
            "primitives" : [
                {
                    "attributes" : {
                        "POSITION" : 4,
                        "NORMAL" : 5,
                        "TEXCOORD_0" : 6
                    },
                    "indices" : 7,
                    "material" : 1
                }
            ]
        },
        {
            "name" : "Torus.003",
            "primitives" : [
                {
                    "attributes" : {
                        "POSITION" : 8,
                        "NORMAL" : 9,
                        "TEXCOORD_0" : 10
                    },
                    "indices" : 11,
                    "material" : 0
                }
            ]
        },
        {
            "name" : "Plane",
            "primitives" : [
                {
                    "attributes" : {
                        "POSITION" : 12,
                        "NORMAL" : 13,
                        "TEXCOORD_0" : 14
                    },
                    "indices" : 15,
                    "material" : 2
                }
            ]
        }
    ],
    "textures" : [
        {
            "sampler" : 0,
            "source" : 0
        },
        {
            "sampler" : 0,
            "source" : 0
        }
    ],
    "images" : [
        {
            "mimeType" : "image/jpeg",
            "name" : "breat_texture",
            "uri" : "texture/breat_texture.jpg"
        }
    ],
    "accessors" : [
        {
            "bufferView" : 0,
            "componentType" : 5126,
            "count" : 6044,
            "max" : [
                0.8924866318702698,
                0.24592140316963196,
                0.8924866318702698
            ],
            "min" : [
                -0.8924866318702698,
                -0.24592138826847076,
                -0.8924866318702698
            ],
            "type" : "VEC3"
        },
        {
            "bufferView" : 1,
            "componentType" : 5126,
            "count" : 6044,
            "type" : "VEC3"
        },
        {
            "bufferView" : 2,
            "componentType" : 5126,
            "count" : 6044,
            "type" : "VEC2"
        },
        {
            "bufferView" : 3,
            "componentType" : 5123,
            "count" : 30720,
            "type" : "SCALAR"
        },
        {
            "bufferView" : 4,
            "componentType" : 5126,
            "count" : 6458,
            "max" : [
                0.9216494560241699,
                0.30379390716552734,
                0.9216943979263306
            ],
            "min" : [
                -0.9217410683631897,
                -0.038101404905319214,
                -0.921612560749054
            ],
            "type" : "VEC3"
        },
        {
            "bufferView" : 5,
            "componentType" : 5126,
            "count" : 6458,
            "type" : "VEC3"
        },
        {
            "bufferView" : 6,
            "componentType" : 5126,
            "count" : 6458,
            "type" : "VEC2"
        },
        {
            "bufferView" : 7,
            "componentType" : 5123,
            "count" : 33792,
            "type" : "SCALAR"
        },
        {
            "bufferView" : 8,
            "componentType" : 5126,
            "count" : 1690,
            "max" : [
                0.8989999294281006,
                0.2534988224506378,
                0.8989999294281006
            ],
            "min" : [
                -0.8989999294281006,
                -0.2534988224506378,
                -0.8989999294281006
            ],
            "type" : "VEC3"
        },
        {
            "bufferView" : 9,
            "componentType" : 5126,
            "count" : 1690,
            "type" : "VEC3"
        },
        {
            "bufferView" : 10,
            "componentType" : 5126,
            "count" : 1690,
            "type" : "VEC2"
        },
        {
            "bufferView" : 11,
            "componentType" : 5123,
            "count" : 9600,
            "type" : "SCALAR"
        },
        {
            "bufferView" : 12,
            "componentType" : 5126,
            "count" : 32,
            "max" : [
                1,
                1.5210702419281006,
                1
            ],
            "min" : [
                -1,
                0,
                -1
            ],
            "type" : "VEC3"
        },
        {
            "bufferView" : 13,
            "componentType" : 5126,
            "count" : 32,
            "type" : "VEC3"
        },
        {
            "bufferView" : 14,
            "componentType" : 5126,
            "count" : 32,
            "type" : "VEC2"
        },
        {
            "bufferView" : 15,
            "componentType" : 5123,
            "count" : 48,
            "type" : "SCALAR"
        }
    ],
    "bufferViews" : [
        {
            "buffer" : 0,
            "byteLength" : 72528,
            "byteOffset" : 0
        },
        {
            "buffer" : 0,
            "byteLength" : 72528,
            "byteOffset" : 72528
        },
        {
            "buffer" : 0,
            "byteLength" : 48352,
            "byteOffset" : 145056
        },
        {
            "buffer" : 0,
            "byteLength" : 61440,
            "byteOffset" : 193408
        },
        {
            "buffer" : 0,
            "byteLength" : 77496,
            "byteOffset" : 254848
        },
        {
            "buffer" : 0,
            "byteLength" : 77496,
            "byteOffset" : 332344
        },
        {
            "buffer" : 0,
            "byteLength" : 51664,
            "byteOffset" : 409840
        },
        {
            "buffer" : 0,
            "byteLength" : 67584,
            "byteOffset" : 461504
        },
        {
            "buffer" : 0,
            "byteLength" : 20280,
            "byteOffset" : 529088
        },
        {
            "buffer" : 0,
            "byteLength" : 20280,
            "byteOffset" : 549368
        },
        {
            "buffer" : 0,
            "byteLength" : 13520,
            "byteOffset" : 569648
        },
        {
            "buffer" : 0,
            "byteLength" : 19200,
            "byteOffset" : 583168
        },
        {
            "buffer" : 0,
            "byteLength" : 384,
            "byteOffset" : 602368
        },
        {
            "buffer" : 0,
            "byteLength" : 384,
            "byteOffset" : 602752
        },
        {
            "buffer" : 0,
            "byteLength" : 256,
            "byteOffset" : 603136
        },
        {
            "buffer" : 0,
            "byteLength" : 96,
            "byteOffset" : 603392
        }
    ],
    "samplers" : [
        {
            "magFilter" : 9729,
            "minFilter" : 9987
        }
    ],
    "buffers" : [
        {
            "byteLength" : 603488,
            "uri" : "dazzling donuts.bin"
        }
    ]
}
